<svg width="356" height="70" viewBox="0 0 356 70" fill="none" xmlns="http://www.w3.org/2000/svg">
<path fill-rule="evenodd" clip-rule="evenodd" d="M16.3095 7.2132H12.2149V18.1985C12.2149 21.1284 11.0664 23.3618 7.65448 23.3618C5.42977 23.3618 4.10134 22.1542 4.10134 18.8246V7.2132H0.0134531V19.226C0.0134531 24.1681 2.09018 26.6605 6.93982 26.6605C8.98292 26.6605 11.2144 25.4117 12.2149 23.5094L12.2889 26.1459H16.3095V7.2132ZM19.8963 26.1459H23.9892V14.977C23.9892 12.193 25.7464 9.99728 28.4773 9.99728C30.8769 9.99728 32.0321 11.2787 32.0977 14.2463V26.1459H36.1923V13.1467C36.1923 8.89771 33.6414 6.7003 29.6208 6.7003C27.1825 6.7003 25.0654 7.98341 23.8429 10.0693L23.7756 7.2132H19.8963V26.1459ZM39.8917 26.1459H43.9796V7.2132H39.8917V26.1459ZM39.8917 3.95569H43.9796V8.85107e-06H39.8917V3.95569ZM52.6279 26.1459H57.2236L63.8625 7.2132H59.6283L55.1065 21.7511L50.3309 7.2132H45.8764L52.6279 26.1459ZM82.4488 17.7594C83.1298 12.0832 79.543 6.7003 73.6929 6.7003C68.1622 6.7003 64.7167 11.3164 64.7167 16.6993C64.7167 22.5213 67.9823 26.6605 73.7988 26.6605C77.8547 26.6605 81.3003 24.3499 82.1949 20.2124H78.3205C77.6076 22.3017 76.1715 23.3618 73.7988 23.3618C70.3869 23.3618 68.8113 20.727 68.8113 17.7594H82.4488ZM68.8113 15.0148C68.9189 12.193 70.8544 9.99728 73.6929 9.99728C76.4591 9.99728 78.2146 12.3765 78.3542 15.0148H68.8113ZM84.8467 26.1459H88.9396V17.1384C88.9396 12.9649 91.1711 10.656 93.9692 10.656C94.5443 10.656 95.1513 10.7658 95.7264 10.8395V6.81009C95.3649 6.77406 95.1194 6.7003 94.1844 6.7003C91.6722 6.7003 89.2272 8.8634 88.7664 10.8755L88.6941 7.2132H84.8467V26.1459ZM95.7533 20.0683C95.8273 24.5352 99.3065 26.6605 103.974 26.6605C107.815 26.6605 112.27 25.012 112.27 20.5057C112.27 16.7713 109.251 15.6752 106.273 14.977C103.253 14.2806 100.241 13.9873 100.241 11.9391C100.241 10.2906 102.431 9.99728 103.613 9.99728C105.411 9.99728 107.027 10.5462 107.388 12.524H111.656C111.153 8.31277 107.708 6.7003 103.901 6.7003C100.527 6.7003 96.1468 7.98341 96.1468 12.1209C96.1468 15.9668 99.0912 17.0647 102.105 17.7251C105.089 18.4198 108.069 18.6771 108.175 20.8745C108.283 23.0342 105.59 23.3618 104.048 23.3618C101.857 23.3618 100.061 22.4836 99.8479 20.0683H95.7533ZM114.767 26.1459H118.861V7.2132H114.767V26.1459ZM114.767 3.95569H118.861V8.85107e-06H114.767V3.95569ZM125.786 16.8794C125.786 13.4761 127.15 9.99728 130.997 9.99728C134.155 9.99728 136.126 12.4863 136.126 16.6615C136.126 19.9585 134.582 23.3618 130.923 23.3618C127.37 23.3618 125.786 20.1421 125.786 16.8794ZM140.073 8.85107e-06H135.985V9.66792C134.656 7.5803 132.072 6.7003 129.734 6.7003C125.68 6.7003 121.693 9.70394 121.693 16.5518C121.693 22.228 124.532 26.6605 130.382 26.6605C132.721 26.6605 135.05 25.7445 136.126 23.5814L136.198 26.1459H140.073V8.85107e-06ZM155.254 19.775C155.254 22.4098 152.456 23.3618 150.66 23.3618C149.224 23.3618 146.891 22.8146 146.891 20.9466C146.891 18.7509 148.475 18.0887 150.231 17.7954C152.029 17.4678 153.998 17.5038 155.254 16.6615V19.775ZM159.348 12.193C159.348 8.20298 155.541 6.7003 151.914 6.7003C147.826 6.7003 143.765 8.12922 143.479 12.9992H147.574C147.754 10.9493 149.37 9.99728 151.667 9.99728C153.317 9.99728 155.508 10.4004 155.508 12.5601C155.508 15.0148 152.883 14.6837 149.945 15.2343C146.498 15.6357 142.798 16.4059 142.798 21.1284C142.798 24.8302 145.817 26.6605 149.15 26.6605C151.341 26.6605 153.964 25.9641 155.582 24.3499C155.901 26.0721 157.083 26.6605 158.74 26.6605C159.421 26.6605 160.71 26.4015 161.318 26.1836V23.2881C160.89 23.3618 160.571 23.3618 160.317 23.3618C159.562 23.3618 159.348 22.9604 159.348 21.9346V12.193ZM166.234 16.8794C166.234 13.4761 167.603 9.99728 171.442 9.99728C174.602 9.99728 176.573 12.4863 176.573 16.6615C176.573 19.9585 175.029 23.3618 171.37 23.3618C167.817 23.3618 166.234 20.1421 166.234 16.8794ZM180.519 8.85107e-06H176.433V9.66792C175.103 7.5803 172.518 6.7003 170.181 6.7003C166.127 6.7003 162.14 9.70394 162.14 16.5518C162.14 22.228 164.978 26.6605 170.828 26.6605C173.159 26.6605 175.496 25.7445 176.573 23.5814L176.647 26.1459H180.519V8.85107e-06ZM201.09 17.7594C201.771 12.0832 198.177 6.7003 192.327 6.7003C186.805 6.7003 183.358 11.3164 183.358 16.6993C183.358 22.5213 186.623 26.6605 192.435 26.6605C196.494 26.6605 199.941 24.3499 200.836 20.2124H196.963C196.24 22.3017 194.804 23.3618 192.435 23.3618C189.028 23.3618 187.446 20.727 187.446 17.7594H201.09ZM187.446 15.0148C187.552 12.193 189.495 9.99728 192.327 9.99728C195.092 9.99728 196.849 12.3765 196.995 15.0148H187.446ZM215.943 16.8794C215.943 13.4761 217.305 9.99728 221.146 9.99728C224.306 9.99728 226.275 12.4863 226.275 16.6615C226.275 19.9585 224.733 23.3618 221.074 23.3618C217.519 23.3618 215.943 20.1421 215.943 16.8794ZM230.221 8.85107e-06H226.135V9.66792C224.807 7.5803 222.222 6.7003 219.89 6.7003C215.83 6.7003 211.85 9.70394 211.85 16.5518C211.85 22.228 214.68 26.6605 220.532 26.6605C222.869 26.6605 225.2 25.7445 226.275 23.5814L226.349 26.1459H230.221V8.85107e-06ZM250.794 17.7594C251.475 12.0832 247.881 6.7003 242.031 6.7003C236.5 6.7003 233.06 11.3164 233.06 16.6993C233.06 22.5213 236.327 26.6605 242.144 26.6605C246.198 26.6605 249.643 24.3499 250.538 20.2124H246.665C245.944 22.3017 244.51 23.3618 242.144 23.3618C238.732 23.3618 237.149 20.727 237.149 17.7594H250.794ZM237.149 15.0148C237.255 12.193 239.199 9.99728 242.031 9.99728C244.795 9.99728 246.559 12.3765 246.699 15.0148H237.149ZM273.902 19.775C273.902 22.4098 271.097 23.3618 269.306 23.3618C267.872 23.3618 265.532 22.8146 265.532 20.9466C265.532 18.7509 267.115 18.0887 268.872 17.7954C270.67 17.4678 272.645 17.5038 273.902 16.6615V19.775ZM277.996 12.193C277.996 8.20298 274.189 6.7003 270.562 6.7003C266.469 6.7003 262.413 8.12922 262.127 12.9992H266.222C266.395 10.9493 268.011 9.99728 270.308 9.99728C271.964 9.99728 274.149 10.4004 274.149 12.5601C274.149 15.0148 271.531 14.6837 268.585 15.2343C265.139 15.6357 261.446 16.4059 261.446 21.1284C261.446 24.8302 264.458 26.6605 267.798 26.6605C269.987 26.6605 272.607 25.9641 274.221 24.3499C274.542 26.0721 275.731 26.6605 277.381 26.6605C278.063 26.6605 279.358 26.4015 279.965 26.1836V23.2881C279.538 23.3618 279.21 23.3618 278.965 23.3618C278.21 23.3618 277.996 22.9604 277.996 21.9346V12.193ZM286.604 26.1459H291.2L297.837 7.2132H293.605L289.081 21.7511L284.307 7.2132H279.853L286.604 26.1459ZM316.425 17.7594C317.106 12.0832 313.514 6.7003 307.669 6.7003C302.138 6.7003 298.693 11.3164 298.693 16.6993C298.693 22.5213 301.96 26.6605 307.77 26.6605C311.831 26.6605 315.277 24.3499 316.171 20.2124H312.297C311.575 22.3017 310.148 23.3618 307.77 23.3618C304.363 23.3618 302.788 20.727 302.788 17.7594H316.425ZM302.788 15.0148C302.887 12.193 304.831 9.99728 307.669 9.99728C310.429 9.99728 312.191 12.3765 312.332 15.0148H302.788ZM318.929 26.1459H323.023V7.2132H318.929V26.1459ZM318.929 3.95569H323.023V8.85107e-06H318.929V3.95569ZM326.758 26.1459H330.851V17.1384C330.851 12.9649 333.074 10.656 335.874 10.656C336.447 10.656 337.056 10.7658 337.63 10.8395V6.81009C337.276 6.77406 337.023 6.7003 336.088 6.7003C333.575 6.7003 331.139 8.8634 330.671 10.8755L330.597 7.2132H326.758V26.1459ZM346.527 23.3618C342.866 23.3618 341.25 19.9585 341.25 16.6615C341.25 13.4023 342.866 9.99728 346.527 9.99728C350.186 9.99728 351.802 13.4023 351.802 16.6615C351.802 19.9585 350.186 23.3618 346.527 23.3618ZM346.527 26.6605C352.483 26.6605 355.896 22.4836 355.896 16.6615C355.896 10.8755 352.483 6.7003 346.527 6.7003C340.569 6.7003 337.155 10.8755 337.155 16.6615C337.155 22.4836 340.569 26.6605 346.527 26.6605ZM5.49703 37.5704H3.23197V43.2466H0V45.1884H3.23197V58.1138C3.19329 61.337 4.23418 62.3594 7.25259 62.3594C7.9353 62.3594 8.5827 62.2873 9.26374 62.2873V60.3095C8.61465 60.385 7.97398 60.4227 7.32658 60.4227C5.71059 60.3095 5.49703 59.4312 5.49703 57.932V45.1884H9.26374V43.2466H5.49703V37.5704ZM11.7743 62.1415H14.0327V51.1202C14.105 47.4218 16.2624 44.6395 19.8492 44.6395C23.51 44.6395 24.5508 47.0925 24.5508 50.35V62.1415H26.8159V49.9846C26.8159 45.4817 25.2319 42.6994 20.0291 42.6994C17.4109 42.6994 14.934 44.2346 14.105 46.5058L14.0327 35.9974H11.7743V62.1415ZM45.9437 53.3176C46.1236 48.0068 43.7526 42.6994 37.7881 42.6994C31.9043 42.6994 29.4257 47.7134 29.4257 52.6949C29.4257 58.0778 31.9043 62.6905 37.7881 62.6905C42.4561 62.6905 44.9011 60.2031 45.8697 55.9181H43.6046C42.8917 58.7742 41.0941 60.7504 37.7881 60.7504C33.4463 60.7504 31.7244 56.6866 31.6908 53.3176H45.9437ZM31.6908 51.3758C32.0506 47.933 34.0954 44.6395 37.7881 44.6395C41.4556 44.6395 43.5727 47.897 43.6786 51.3758H31.6908ZM56.0953 42.6994C50.4183 42.6994 47.3327 47.2743 47.3327 52.6949C47.3327 58.1138 50.4183 62.6905 56.0953 62.6905C61.7655 62.6905 64.8512 58.1138 64.8512 52.6949C64.8512 47.2743 61.7655 42.6994 56.0953 42.6994ZM56.0953 44.6395C60.4354 44.6395 62.5861 48.6655 62.5861 52.6949C62.5861 56.7226 60.4354 60.7504 56.0953 60.7504C51.7468 60.7504 49.5961 56.7226 49.5961 52.6949C49.5961 48.6655 51.7468 44.6395 56.0953 44.6395ZM67.5014 62.1415H69.7664V52.0705C69.7664 48.1526 72.5645 45.0769 76.6524 45.2965V42.9893C73.3196 42.8435 70.8073 44.6395 69.6588 47.6791L69.5865 43.2466H67.5014V62.1415ZM78.1272 62.1415H80.3855V43.2449H78.1272V62.1415ZM78.1272 39.6957H80.3855V35.9991H78.1272V39.6957ZM95.8458 54.8186C95.8862 58.5169 92.8341 60.7504 89.3869 60.7504C87.2715 60.7504 85.2604 59.3214 85.2604 57.016C85.2604 53.3176 90.036 53.3519 93.8767 52.6589C94.4837 52.5474 95.4927 52.3656 95.7802 51.8149L95.8458 54.8186ZM86.049 49.0326C86.123 45.9569 88.2065 44.6395 91.0046 44.6395C93.6615 44.6395 95.8458 45.408 95.8458 48.5214C95.8458 50.6073 94.8116 50.8629 92.9417 51.0824C88.0585 51.6691 82.997 51.8509 82.997 57.1618C82.997 60.9699 85.8018 62.6905 89.2087 62.6905C92.7601 62.6905 94.3778 61.301 95.9602 58.848C96.0341 60.8241 96.3873 62.1415 98.6843 62.1415C99.293 62.1415 99.6529 62.1055 100.161 61.9957V60.0539C99.9808 60.1294 99.6932 60.2032 99.4393 60.2032C98.5447 60.2032 98.1109 59.6903 98.1109 58.8103V48.7753C98.1109 43.7235 94.5577 42.6994 91.2921 42.6994C87.058 42.6994 84.0042 44.6017 83.7907 49.0326H86.049ZM125.988 52.6949C125.988 56.6146 124.231 60.7504 119.924 60.7504C115.115 60.7504 113.425 56.6146 113.425 52.6949C113.425 48.4116 114.933 44.6395 119.924 44.6395C124.231 44.6395 125.988 48.7753 125.988 52.6949ZM111.161 69.1369H113.425V58.553C114.467 61.2633 117.158 62.6905 119.924 62.6905C125.561 62.6905 128.251 58.04 128.251 52.6949C128.251 47.3463 125.561 42.6994 119.924 42.6994C116.944 42.6994 114.36 44.2724 113.317 46.8352L113.245 43.2466H111.161V69.1369ZM138.877 42.6994C133.207 42.6994 130.114 47.2743 130.114 52.6949C130.114 58.1138 133.207 62.6905 138.877 62.6905C144.547 62.6905 147.633 58.1138 147.633 52.6949C147.633 47.2743 144.547 42.6994 138.877 42.6994ZM138.877 44.6395C143.219 44.6395 145.376 48.6655 145.376 52.6949C145.376 56.7226 143.219 60.7504 138.877 60.7504C134.53 60.7504 132.379 56.7226 132.379 52.6949C132.379 48.6655 134.53 44.6395 138.877 44.6395ZM150.318 62.1415H152.583V43.2449H150.318V62.1415ZM150.318 39.6957H152.583V35.9991H150.318V39.6957ZM171.777 53.3176C171.958 48.0068 169.592 42.6994 163.628 42.6994C157.744 42.6994 155.267 47.7134 155.267 52.6949C155.267 58.0778 157.744 62.6905 163.628 62.6905C168.298 62.6905 170.734 60.2031 171.705 55.9181H169.446C168.725 58.7742 166.936 60.7504 163.628 60.7504C159.288 60.7504 157.564 56.6866 157.526 53.3176H171.777ZM157.526 51.3758C157.885 47.933 159.935 44.6395 163.628 44.6395C167.289 44.6395 169.406 47.897 169.52 51.3758H157.526ZM187.459 48.7753C187.311 44.6755 184.367 42.6994 180.674 42.6994C177.407 42.6994 173.707 44.1626 173.707 48.0068C173.707 51.23 175.937 52.2558 178.876 53.062L181.789 53.719C183.832 54.2319 185.841 54.9644 185.841 57.1618C185.841 59.7983 182.897 60.7504 180.78 60.7504C177.768 60.7504 175.503 59.1396 175.323 56.0279H173.058C173.42 60.6406 176.366 62.6905 180.674 62.6905C184.12 62.6905 188.1 61.1175 188.1 57.016C188.1 53.719 185.409 52.182 182.83 51.7772L179.811 51.0824C178.268 50.681 175.971 49.9469 175.971 47.897C175.971 45.444 178.342 44.6395 180.353 44.6395C182.937 44.6395 185.088 45.9191 185.194 48.7753H187.459ZM190.684 62.1415H192.949V43.2449H190.684V62.1415ZM190.684 39.6957H192.949V35.9991H190.684V39.6957ZM209.92 48.7753C209.772 44.6755 206.834 42.6994 203.135 42.6994C199.867 42.6994 196.168 44.1626 196.168 48.0068C196.168 51.23 198.399 52.2558 201.337 53.062L204.25 53.719C206.293 54.2319 208.302 54.9644 208.302 57.1618C208.302 59.7983 205.358 60.7504 203.241 60.7504C200.229 60.7504 197.964 59.1396 197.784 56.0279H195.527C195.88 60.6406 198.826 62.6905 203.135 62.6905C206.58 62.6905 210.567 61.1175 210.567 57.016C210.567 53.719 207.875 52.182 205.29 51.7772L202.272 51.0824C200.728 50.681 198.431 49.9469 198.431 47.897C198.431 45.444 200.802 44.6395 202.813 44.6395C205.398 44.6395 207.549 45.9191 207.661 48.7753H209.92ZM237.195 52.6949C237.195 56.6146 235.437 60.7504 231.131 60.7504C226.315 60.7504 224.632 56.6146 224.632 52.6949C224.632 48.4116 226.142 44.6395 231.131 44.6395C235.437 44.6395 237.195 48.7753 237.195 52.6949ZM222.368 69.1369H224.632V58.553C225.674 61.2633 228.365 62.6905 231.131 62.6905C236.761 62.6905 239.46 58.04 239.46 52.6949C239.46 47.3463 236.761 42.6994 231.131 42.6994C228.151 42.6994 225.567 44.2724 224.526 46.8352L224.452 43.2466H222.368V69.1369ZM242.258 62.1415H244.515V52.0705C244.515 48.1526 247.319 45.0769 251.407 45.2965V42.9893C248.074 42.8435 245.557 44.6395 244.409 47.6791L244.341 43.2466H242.258V62.1415ZM264.692 54.8186C264.725 58.5169 261.673 60.7504 258.226 60.7504C256.109 60.7504 254.1 59.3214 254.1 57.016C254.1 53.3176 258.875 53.3519 262.714 52.6589C263.328 52.5474 264.332 52.3656 264.618 51.8149L264.692 54.8186ZM254.893 49.0326C254.96 45.9569 257.044 44.6395 259.844 44.6395C262.501 44.6395 264.692 45.408 264.692 48.5214C264.692 50.6073 263.649 50.8629 261.779 51.0824C256.904 51.6691 251.834 51.8509 251.834 57.1618C251.834 60.9699 254.639 62.6905 258.046 62.6905C261.606 62.6905 263.215 61.301 264.798 58.848C264.872 60.8241 265.226 62.1415 267.523 62.1415C268.137 62.1415 268.492 62.1055 269 61.9957V60.0539C268.82 60.1294 268.532 60.2032 268.278 60.2032C267.384 60.2032 266.948 59.6903 266.948 58.8103V48.7753C266.948 43.7235 263.395 42.6994 260.13 42.6994C255.895 42.6994 252.843 44.6017 252.63 49.0326H254.893ZM268.632 62.1415H271.43L277.14 54.1976L282.952 62.1415H285.824L278.61 52.2901L285.289 43.2466H282.451L277.282 50.422L272.005 43.2466H269.166L275.812 52.3278L268.632 62.1415ZM287.332 62.1415H289.589V43.2449H287.332V62.1415ZM287.332 39.6957H289.589V35.9991H287.332V39.6957ZM306.561 48.7753C306.42 44.6755 303.475 42.6994 299.776 42.6994C296.515 42.6994 292.816 44.1626 292.816 48.0068C292.816 51.23 295.039 52.2558 297.985 53.062L300.891 53.719C302.941 54.2319 304.952 54.9644 304.952 57.1618C304.952 59.7983 302.006 60.7504 299.889 60.7504C296.87 60.7504 294.612 59.1396 294.432 56.0279H292.167C292.528 60.6406 295.474 62.6905 299.776 62.6905C303.226 62.6905 307.208 61.1175 307.208 57.016C307.208 53.719 304.516 52.182 301.932 51.7772L298.92 51.0824C297.371 50.681 295.073 49.9469 295.073 47.897C295.073 45.444 297.444 44.6395 299.453 44.6395C302.038 44.6395 304.197 45.9191 304.303 48.7753H306.561Z" fill="black"/>
</svg>
