<svg width="110" height="122" viewBox="0 0 110 122" fill="none" xmlns="http://www.w3.org/2000/svg">
<path fill-rule="evenodd" clip-rule="evenodd" d="M74.0208 29.0277C76.6457 29.0277 79.0234 27.9522 80.7521 26.2094L92.4743 11.3541C93.2764 10.3026 94.5174 9.62674 95.9265 9.62674C96.1619 9.62674 96.3873 9.64562 96.6092 9.68164C104.289 10.8481 109.678 17.4729 109.678 25.4769L109.685 105.326C109.685 114.155 102.666 121.314 94.0112 121.314H15.6755C7.02054 121.314 0 114.155 0 105.326L0.00672898 25.4769C0.00672898 17.4729 5.3911 10.8481 13.0775 9.68164C13.2978 9.64562 13.5248 9.62674 13.7518 9.62674C15.161 9.62674 16.4037 10.3026 17.2108 11.3541L28.9263 26.2094C30.6633 27.9522 33.1134 29.0277 35.7383 29.0277C41.0218 29.0277 45.229 24.6569 45.229 19.2689L45.2223 14.2171L45.229 1.73769C45.229 0.770214 45.9639 5.07473e-06 46.9123 5.07473e-06C56.736 0.821674 64.3636 9.02979 64.3636 19.2689C64.3636 24.6569 68.7373 29.0277 74.0208 29.0277ZM70.4811 105.416C66.3932 105.416 62.8417 107.767 60.8508 111.495C60.0083 112.992 58.426 114.001 56.6166 114.001H54.7921C52.9827 114.001 51.4004 112.992 50.3511 111.22C48.5754 107.767 45.0222 105.416 40.9343 105.416L18.2063 105.414C16.8442 105.414 15.689 104.282 15.689 102.887L15.7092 71.722C15.7092 70.3239 16.7097 69.1146 18.0802 69.1146H40.9343C45.0222 69.1146 48.5753 71.4664 50.5646 75.1939C51.4004 76.6914 52.9827 77.7018 54.7921 77.7018H56.6166C58.426 77.7018 60.0083 76.6914 61.0576 74.9177C62.8417 71.4664 66.3932 69.1146 70.4811 69.1146L91.5595 69.1283C92.9283 69.1283 93.9961 70.257 93.9961 71.6551L93.9709 102.897C93.9709 104.292 92.8224 105.424 91.4519 105.424L70.4811 105.416Z" fill="#5A4234"/>
</svg>
